<?xml version="1.0" encoding="UTF-8"?>
<svg width="300px" height="300px" viewBox="0 0 300 300" version="1.1" xmlns="http://www.w3.org/2000/svg" xmlns:xlink="http://www.w3.org/1999/xlink">
    <title>网络异常</title>
    <defs>
        <rect id="path-1" x="0" y="0" width="300" height="300"></rect>
        <linearGradient x1="50%" y1="1.0708042%" x2="50%" y2="99.470331%" id="linearGradient-3">
            <stop stop-color="#108BFE" stop-opacity="0.298623252" offset="0%"></stop>
            <stop stop-color="#108BFE" stop-opacity="0.101480551" offset="100%"></stop>
        </linearGradient>
        <path d="M139.5,189.633112 C233,188.633112 252,161.633112 260.216168,120.092239 C267,73.6331123 214.225405,60.6331123 147,60.6331123 C108,60.6331123 98.9919645,32.2729492 73,15.6331123 C37.685387,-6.97500566 0,-12.3664704 0,50.1331123 C0,171.633112 62.465226,190.457014 139.5,189.633112 Z" id="path-4"></path>
        <radialGradient cx="51.1852257%" cy="0%" fx="51.1852257%" fy="0%" r="106.18537%" gradientTransform="translate(0.511852,0.000000),scale(0.602899,1.000000),rotate(-90.000000),translate(-0.511852,-0.000000)" id="radialGradient-6">
            <stop stop-color="#108BFE" stop-opacity="0.618635271" offset="0%"></stop>
            <stop stop-color="#FFFFFF" stop-opacity="0.0420673077" offset="100%"></stop>
        </radialGradient>
        <path d="M11.3554056,0.178907878 C11.4700141,0.301608133 11.5648517,0.480793226 11.6296877,0.697476655 L22.0000866,34.6578765 L21.9233636,34.6583567 C21.974028,34.774682 22.0000866,34.893055 22.0000866,35.0130811 C22.0000866,35.7914072 20.9043079,36.50022 19.1089042,37.0319213 L18.6647774,37.1560739 L18.6647774,37.1560739 L18.1950019,37.273095 L18.1950019,37.273095 L17.7007948,37.3826538 C17.6164586,37.4002734 17.5311551,37.4175683 17.4449097,37.4345317 L16.916337,37.5322775 C16.8264253,37.547887 16.7356224,37.563151 16.6439537,37.5780629 L16.0837536,37.663252 L16.0837536,37.663252 L15.5039898,37.7396568 L15.5039898,37.7396568 L14.9058793,37.8069467 C14.804733,37.8173837 14.7028729,37.8274272 14.6003244,37.8370703 L13.9769757,37.8900681 L13.9769757,37.8900681 L13.3383227,37.9331247 C13.2306728,37.939454 13.1224359,37.9453553 13.0136374,37.9508217 L12.35431,37.9783467 L12.35431,37.9783467 L11.6827207,37.995104 L11.6827207,37.995104 L11.0000866,38.0007633 L11.0000866,38.0007633 L10.3174525,37.995104 L10.3174525,37.995104 L9.64586326,37.9783467 L9.64586326,37.9783467 L8.98653577,37.9508217 L8.98653577,37.9508217 L8.34068706,37.9128597 L8.34068706,37.9128597 L7.7095341,37.8647912 C7.6056342,37.8559559 7.50239733,37.8467133 7.39984884,37.8370703 L6.79302137,37.7744618 L6.79302137,37.7744618 L6.20393211,37.7025731 L6.20393211,37.7025731 L5.63379806,37.6217348 C5.54042292,37.6075344 5.4478883,37.5929747 5.35621954,37.5780629 L4.81680013,37.48442 C4.72869623,37.4681267 4.6415089,37.451495 4.55526349,37.4345317 L4.04929695,37.3288278 C3.96692065,37.3105657 3.88553698,37.2919858 3.80517129,37.273095 L3.33539583,37.1560739 L3.33539583,37.1560739 L2.89126897,37.0319213 C1.0958653,36.50022 0,35.7914072 0,35.0130811 C0,34.893055 0.0261451983,34.774682 0.0768095757,34.6583567 C0.0544798368,34.6585103 0.0271143888,34.654357 0,34.6454571 L10.3662953,0.697476655 C10.5636906,0.0379331162 11.0064962,-0.19429551 11.3554056,0.178907878 Z" id="path-7"></path>
        <radialGradient cx="50%" cy="50%" fx="50%" fy="50%" r="50%" gradientTransform="translate(0.500000,0.500000),scale(0.285714,1.000000),rotate(90.000000),scale(1.000000,3.723312),translate(-0.500000,-0.500000)" id="radialGradient-9">
            <stop stop-color="#108BFE" offset="0%"></stop>
            <stop stop-color="#78BEFF" offset="100%"></stop>
        </radialGradient>
        <path d="M5.67776707,0.0757715313 C5.73507109,0.127434797 5.7824897,0.202881151 5.81490759,0.29411628 L11.0000866,14.593232 L10.9617253,14.5934342 C10.9870574,14.6424133 11.0000866,14.6922545 11.0000866,14.7427918 C11.0000866,15.0705081 10.4521994,15.3689556 9.55450112,15.5928298 L9.33243857,15.6451046 L9.33243857,15.6451046 L9.09755176,15.6943766 L9.09755176,15.6943766 L8.85044918,15.7405067 C8.80828125,15.7479254 8.76562967,15.7552075 8.72250714,15.76235 L8.45822183,15.8035061 C8.41326616,15.8100785 8.36786489,15.8165055 8.32203069,15.8227842 L8.04193175,15.8586533 L8.04193175,15.8586533 L7.752051,15.8908237 L7.752051,15.8908237 L7.45299694,15.9191563 C7.40242395,15.9235508 7.3514941,15.9277797 7.30022006,15.9318399 L6.98854693,15.9541548 L6.98854693,15.9541548 L6.66922171,15.9722839 C6.61539697,15.9749488 6.56127875,15.9774336 6.50687972,15.9797352 L6.17721727,15.9913247 L6.17721727,15.9913247 L5.84142396,15.9983804 L5.84142396,15.9983804 L5.50010826,16.0007633 L5.50010826,16.0007633 L5.15879257,15.9983804 L5.15879257,15.9983804 L4.82299925,15.9913247 L4.82299925,15.9913247 L4.49333681,15.9797352 L4.49333681,15.9797352 L4.17041372,15.9637512 L4.17041372,15.9637512 L3.85483848,15.9435119 C3.80288874,15.9397918 3.75127051,15.9359001 3.69999646,15.9318399 L3.39658392,15.9054784 L3.39658392,15.9054784 L3.10204045,15.8752095 L3.10204045,15.8752095 L2.81697455,15.8411724 C2.77028717,15.8351932 2.72402004,15.8290628 2.67818583,15.8227842 L2.40847719,15.7833556 C2.36442542,15.7764953 2.32083192,15.7694924 2.27770939,15.76235 L2.02472711,15.7178431 C1.98353912,15.7101538 1.94284745,15.7023307 1.90266477,15.6943766 L1.66777796,15.6451046 L1.66777796,15.6451046 L1.44571541,15.5928298 C0.548017103,15.3689556 8.66096871e-05,15.0705081 8.66096871e-05,14.7427918 C8.66096871e-05,14.6922545 0.0131591574,14.6424133 0.0384912463,14.5934342 C0.0273264209,14.5934989 0.0136437507,14.5917501 8.66096871e-05,14.5880028 L5.18321386,0.29411628 C5.2819111,0.016413737 5.50331302,-0.0813667373 5.67776707,0.0757715313 Z" id="path-10"></path>
        <path d="M1.4624945,55.216562 L2.19943991,21.5620126 C2.34524691,14.9033971 5.96691607,8.80726384 11.7449188,5.49469602 C14.6938352,3.80406243 17.2944333,2.34995632 19.5467131,1.1323777 C23.9314298,-1.23799267 18.5498216,17.4510374 3.40188844,57.199468 L1.4624945,55.216562 Z" id="path-12"></path>
        <polygon id="path-14" points="7 0 0 21 7 26 14 0"></polygon>
        <radialGradient cx="50%" cy="50%" fx="50%" fy="50%" r="92.0503181%" gradientTransform="translate(0.500000,0.500000),scale(1.000000,0.727273),rotate(-90.000000),translate(-0.500000,-0.500000)" id="radialGradient-16">
            <stop stop-color="#EAF0FF" offset="0%"></stop>
            <stop stop-color="#ACC4FF" offset="100%"></stop>
        </radialGradient>
        <linearGradient x1="50%" y1="2.43662587%" x2="50%" y2="100%" id="linearGradient-17">
            <stop stop-color="#07C8FF" offset="0%"></stop>
            <stop stop-color="#108BFE" offset="100%"></stop>
        </linearGradient>
        <path d="M124.047931,208.550728 L124.930518,169.129537 C125.074476,162.69909 128.687854,156.850309 134.374018,153.843832 C134.374018,153.843832 134.374018,153.843832 134.374018,153.843832 C134.374018,153.843832 134.374018,153.843832 134.374018,153.843832 C139.55572,151.104081 145.977326,153.083674 148.717076,158.265376 C149.119102,159.025729 149.427209,159.832134 149.634607,160.666848 L159.047931,198.550728 L159.047931,198.550728 L124.047931,208.550728 Z" id="path-18"></path>
        <filter x="-10.0%" y="-3.4%" width="120.0%" height="111.4%" filterUnits="objectBoundingBox" id="filter-19">
            <feOffset dx="0" dy="1" in="SourceAlpha" result="shadowOffsetOuter1"></feOffset>
            <feGaussianBlur stdDeviation="1" in="shadowOffsetOuter1" result="shadowBlurOuter1"></feGaussianBlur>
            <feColorMatrix values="0 0 0 0 0.432336128   0 0 0 0 0.661150816   0 0 0 0 1  0 0 0 1 0" type="matrix" in="shadowBlurOuter1"></feColorMatrix>
        </filter>
        <radialGradient cx="33.5278256%" cy="39.3881353%" fx="33.5278256%" fy="39.3881353%" r="44.6948756%" gradientTransform="translate(0.335278,0.393881),scale(1.000000,0.800000),rotate(47.166579),scale(1.000000,3.883306),translate(-0.335278,-0.393881)" id="radialGradient-20">
            <stop stop-color="#A9E5FF" offset="0%"></stop>
            <stop stop-color="#317CE9" offset="100%"></stop>
        </radialGradient>
        <linearGradient x1="62.6805083%" y1="63.6825137%" x2="39.3100647%" y2="36.0898457%" id="linearGradient-21">
            <stop stop-color="#60A0FF" offset="0.00546328671%"></stop>
            <stop stop-color="#B6D2FD" offset="100%"></stop>
        </linearGradient>
        <filter x="0.0%" y="-0.0%" width="100.0%" height="100.0%" filterUnits="objectBoundingBox" id="filter-22">
            <feGaussianBlur stdDeviation="0" in="SourceGraphic"></feGaussianBlur>
        </filter>
        <linearGradient x1="44.7296611%" y1="57.6910539%" x2="56.8258886%" y2="45.5284989%" id="linearGradient-23">
            <stop stop-color="#3F6EE3" offset="0%"></stop>
            <stop stop-color="#FFFFFF" offset="100%"></stop>
        </linearGradient>
        <radialGradient cx="50.1504152%" cy="77.4229795%" fx="50.1504152%" fy="77.4229795%" r="78.6336691%" gradientTransform="translate(0.501504,0.774230),scale(0.960000,1.000000),rotate(-83.021667),scale(1.000000,3.767176),translate(-0.501504,-0.774230)" id="radialGradient-24">
            <stop stop-color="#408DD2" offset="0%"></stop>
            <stop stop-color="#FFFFFF" offset="100%"></stop>
        </radialGradient>
        <linearGradient x1="50%" y1="2.43662587%" x2="50%" y2="100%" id="linearGradient-25">
            <stop stop-color="#07C8FF" offset="0%"></stop>
            <stop stop-color="#108BFE" offset="100%"></stop>
        </linearGradient>
    </defs>
    <g id="页面-1" stroke="none" stroke-width="1" fill="none" fill-rule="evenodd">
        <g id="画板备份-2" transform="translate(-1231.000000, -731.000000)">
            <g id="网络异常" transform="translate(1231.000000, 731.000000)">
                <mask id="mask-2" fill="white">
                    <use xlink:href="#path-1"></use>
                </mask>
                <g id="蒙版"></g>
                <g id="椭圆形备份-4" mask="url(#mask-2)">
                    <g transform="translate(20.000000, 90.000000)">
                        <mask id="mask-5" fill="white">
                            <use xlink:href="#path-4"></use>
                        </mask>
                        <use id="蒙版" stroke="none" fill="url(#linearGradient-3)" fill-rule="evenodd" xlink:href="#path-4"></use>
                        <ellipse id="椭圆形" stroke="none" fill="url(#radialGradient-6)" fill-rule="evenodd" mask="url(#mask-5)" cx="130.5" cy="236.5" rx="172.5" ry="104"></ellipse>
                        <g id="Fill-3" stroke="none" stroke-width="1" fill="none" fill-rule="evenodd" mask="url(#mask-5)">
                            <g transform="translate(195.999913, 115.999237)">
                                <mask id="mask-8" fill="white">
                                    <use xlink:href="#path-7"></use>
                                </mask>
                                <use id="蒙版" stroke="none" fill="#78BEFF" fill-rule="evenodd" xlink:href="#path-7"></use>
                                <path d="M23.0000866,35.4777513 L15.0000866,39.0007633 C14.9725956,39.0014629 10.9352506,0.0347073353 11.0000866,0.247631123 C11.5546366,-0.0815260018 11.8879699,-0.0815260018 12.0000866,0.247631123 C14.5546366,7.74738959 18.2213032,19.490763 23.0000866,35.4777513 Z" id="Fill-3" stroke="none" fill="#108BFE" fill-rule="evenodd" mask="url(#mask-8)"></path>
                            </g>
                        </g>
                        <ellipse id="椭圆形" stroke="none" fill="url(#radialGradient-9)" fill-rule="evenodd" mask="url(#mask-5)" cx="172.999913" cy="155.999237" rx="7" ry="2"></ellipse>
                        <ellipse id="椭圆形备份-12" stroke="none" fill="url(#radialGradient-9)" fill-rule="evenodd" mask="url(#mask-5)" cx="98.9999134" cy="142.999237" rx="7" ry="2"></ellipse>
                        <g id="Fill-3" stroke="none" stroke-width="1" fill="none" fill-rule="evenodd" mask="url(#mask-5)">
                            <g transform="translate(54.999913, 128.999237)">
                                <mask id="mask-11" fill="white">
                                    <use xlink:href="#path-10"></use>
                                </mask>
                                <use id="蒙版" stroke="none" fill="#78BEFF" fill-rule="evenodd" xlink:href="#path-10"></use>
                                <path d="M11.0000866,15.4650914 L7.00034413,17.0007633 C6.98659953,17.0010683 4.96805697,0.0155594063 5.00047289,0.108372339 C5.27773001,-0.0351064073 5.44438595,-0.0351064073 5.5004407,0.108372339 C6.77763344,3.37749782 8.61084875,8.49640417 11.0000866,15.4650914 Z" id="Fill-3" stroke="none" fill="#108BFE" fill-rule="evenodd" mask="url(#mask-11)"></path>
                            </g>
                        </g>
                    </g>
                </g>
                <g id="编组-8" mask="url(#mask-2)">
                    <g transform="translate(50.411447, 31.000000)">
                        <g id="编组-7" stroke="none" stroke-width="1" fill="none" fill-rule="evenodd" transform="translate(101.591294, 136.394748)">
                            <g id="路径-31">
                                <mask id="mask-13" fill="white">
                                    <use xlink:href="#path-12"></use>
                                </mask>
                                <use id="蒙版" fill="#7CC2FF" transform="translate(11.242819, 29.065873) rotate(3.000000) translate(-11.242819, -29.065873) " xlink:href="#path-12"></use>
                            </g>
                            <path d="M1.49725907,56.1046719 L10.9308637,29.9796655 C11.8149628,27.5312869 13.1927383,25.290693 14.9787141,23.3968927 C17.083299,21.165248 19.422814,19.234701 21.9972591,17.6052518 C25.8414149,15.1721618 25.1866542,32.3303026 20.0329769,69.0796744 L1.49725907,56.1046719 Z" id="路径-30备份" fill="#108BFE"></path>
                            <g id="路径-33" transform="translate(7.497259, 29.104672)">
                                <mask id="mask-15" fill="white">
                                    <use xlink:href="#path-14"></use>
                                </mask>
                                <use id="蒙版" fill="#E0E7FF" xlink:href="#path-14"></use>
                                <polygon fill="#B7F5FF" mask="url(#mask-15)" points="2 21 8 25 7 26 -2 21"></polygon>
                                <polygon id="路径-32" fill="#1B66EF" mask="url(#mask-15)" points="-2 21 2 21 9 4.97379915e-14 6 -2"></polygon>
                            </g>
                            <ellipse id="椭圆形" fill="#5B5FFA" cx="38.9972591" cy="33.1046719" rx="2.5" ry="3"></ellipse>
                            <path d="M38.9972591,36.1046719 C40.3779709,36.1046719 41.4972591,34.7615262 41.4972591,33.1046719 C41.4972591,31.4478177 41.3779709,30.6046719 39.9972591,30.6046719 C38.6165472,30.6046719 37.4972591,31.9478177 37.4972591,33.6046719 C37.4972591,35.2615262 37.6165472,36.1046719 38.9972591,36.1046719 Z" id="椭圆形备份-7" fill="url(#radialGradient-16)"></path>
                        </g>
                        <path d="M165.170326,131.927153 C194.223148,93.2793099 186.326532,38.1934208 147.532741,8.88937647 C127.730541,-6.06880535 108.159256,34.3322323 81.7327624,70.3493586 C56.3880483,104.892109 23.3315777,134.499736 42.3231674,148.845599 C81.116958,178.149643 136.117504,170.574997 165.170326,131.927153 Z" id="椭圆形备份-6" stroke="none" fill="url(#linearGradient-17)" fill-rule="evenodd"></path>
                        <path d="M122.097536,206.173486 L122.978552,167.158797 C123.123418,160.743749 126.740473,154.913371 132.423623,151.93417 C132.423623,151.93417 132.423623,151.93417 132.423623,151.93417 C132.423623,151.93417 132.423623,151.93417 132.423623,151.93417 C135.948818,150.086204 140.304625,151.445868 142.15259,154.971062 C143.120003,156.816508 143.241344,158.990338 142.485348,160.931994 L124.097536,208.156392 L124.097536,208.156392 L122.097536,206.173486 Z" id="路径-30" stroke="none" fill="#7EC5FF" fill-rule="evenodd" transform="translate(134.043188, 179.156392) rotate(3.000000) translate(-134.043188, -179.156392) "></path>
                        <g id="路径-30备份-2" stroke="none" fill="none" transform="translate(141.547931, 180.300728) rotate(3.000000) translate(-141.547931, -180.300728) ">
                            <use fill="black" fill-opacity="1" filter="url(#filter-19)" xlink:href="#path-18"></use>
                            <use fill="#A5C9FF" fill-rule="evenodd" xlink:href="#path-18"></use>
                        </g>
                        <path d="M130.436079,4.35519324 C135.489388,3.16332455 139.754675,3.51888273 142.819869,5.83450023 C145.886087,8.15089061 147.4031,12.1645172 147.653259,17.3647636 C147.926933,23.0538414 146.673343,30.148834 144.079483,38.1594925 C138.928191,54.0683046 128.492321,73.5397568 114.007529,92.8102231 C99.5229107,112.080459 83.7296224,127.50427 69.8956255,136.853459 C62.9303571,141.560674 56.4736448,144.724159 50.9438361,146.028414 C45.8905272,147.220283 41.6252405,146.864725 38.560046,144.549107 C35.4938284,142.232717 33.976815,138.21909 33.7266565,133.018844 C33.4529827,127.329766 34.706572,120.234773 37.3004326,112.224115 C42.4517245,96.3153029 52.8875941,76.8438507 67.3723859,57.5733843 C81.8570045,38.3031485 97.6502928,22.8793371 111.48429,13.5301486 C118.449558,8.82293296 124.90627,5.65944873 130.436079,4.35519324 Z" id="椭圆形" stroke="url(#linearGradient-21)" stroke-width="2" fill="url(#radialGradient-20)" fill-rule="evenodd" filter="url(#filter-22)"></path>
                        <polygon id="矩形" stroke="none" fill="url(#linearGradient-23)" fill-rule="evenodd" transform="translate(86.161030, 79.772995) rotate(-8.000000) translate(-86.161030, -79.772995) " points="67.0559408 58.3979724 108.231637 98.251466 105.26612 101.148018 64.0904236 61.2945241"></polygon>
                        <ellipse id="椭圆形" stroke="none" fill="url(#radialGradient-24)" fill-rule="evenodd" transform="translate(62.954960, 62.459136) rotate(-8.000000) translate(-62.954960, -62.459136) " cx="62.9549602" cy="62.4591359" rx="12.5" ry="12"></ellipse>
                        <path d="M64.862322,3.02614095 C68.0362521,3.97841802 69.8372578,7.32336985 68.8849807,10.4973 C67.9327036,13.6712301 64.5877518,15.4722357 61.4138217,14.5199587 C51.663015,11.5944155 41.1496752,12.6462521 32.0675642,17.6805484 C13.7120774,27.8551609 7.08016844,50.9833761 17.2547809,69.3388629 C18.8612987,72.2370976 17.8141551,75.8889211 14.9159204,77.4954388 C12.0176856,79.1019566 8.36586219,78.0548131 6.75934443,75.1565783 C-6.62830356,51.004622 2.09789246,20.5727599 26.2498488,7.18511193 C38.1893672,0.566928815 52.0453865,-0.81933558 64.862322,3.02614095 Z M56.8131158,28.1932802 C59.949079,29.2639805 61.6233053,32.674155 60.5526051,35.8101182 C59.5093586,38.865672 56.2450729,40.5334889 53.1774918,39.6265765 L52.9357671,39.5496074 C49.7405878,38.4586892 46.2450627,38.7405739 43.2354257,40.408843 C37.5281326,43.5724472 35.409985,50.701766 38.4131734,56.4534157 L38.5577047,56.7219949 C40.1642224,59.6202296 39.1170789,63.2720531 36.2188441,64.8785708 C33.3206094,66.4850886 29.6687859,65.4379451 28.0622682,62.5397103 C21.6361971,50.9467713 25.8247712,36.3394775 37.4177103,29.9134065 C43.4237832,26.5841859 50.4425018,26.0181851 56.8131158,28.1932802 Z" id="形状" stroke="none" fill="url(#linearGradient-25)" fill-rule="evenodd"></path>
                    </g>
                </g>
            </g>
        </g>
    </g>
</svg>