<?xml version="1.0" encoding="UTF-8"?>
<svg width="300px" height="300px" viewBox="0 0 300 300" version="1.1" xmlns="http://www.w3.org/2000/svg" xmlns:xlink="http://www.w3.org/1999/xlink">
    <title>无消息无通知</title>
    <defs>
        <rect id="path-1" x="0" y="0" width="300" height="300"></rect>
        <linearGradient x1="50%" y1="1.0708042%" x2="50%" y2="99.470331%" id="linearGradient-3">
            <stop stop-color="#108BFE" stop-opacity="0.298623252" offset="0%"></stop>
            <stop stop-color="#108BFE" stop-opacity="0.101480551" offset="100%"></stop>
        </linearGradient>
        <path d="M139.5,189.633112 C233,188.633112 252,161.633112 260.216168,120.092239 C267,73.6331123 214.225405,60.6331123 147,60.6331123 C108,60.6331123 98.9919645,32.2729492 73,15.6331123 C37.685387,-6.97500566 0,-12.3664704 0,50.1331123 C0,171.633112 62.465226,190.457014 139.5,189.633112 Z" id="path-4"></path>
        <radialGradient cx="51.1852257%" cy="0%" fx="51.1852257%" fy="0%" r="106.18537%" gradientTransform="translate(0.511852,0.000000),scale(0.602899,1.000000),rotate(-90.000000),translate(-0.511852,-0.000000)" id="radialGradient-6">
            <stop stop-color="#108BFE" stop-opacity="0.618635271" offset="0%"></stop>
            <stop stop-color="#FFFFFF" stop-opacity="0.0420673077" offset="100%"></stop>
        </radialGradient>
        <path d="M11.3554056,0.178907878 C11.4700141,0.301608133 11.5648517,0.480793226 11.6296877,0.697476655 L22.0000866,34.6578765 L21.9233636,34.6583567 C21.974028,34.774682 22.0000866,34.893055 22.0000866,35.0130811 C22.0000866,35.7914072 20.9043079,36.50022 19.1089042,37.0319213 L18.6647774,37.1560739 L18.6647774,37.1560739 L18.1950019,37.273095 L18.1950019,37.273095 L17.7007948,37.3826538 C17.6164586,37.4002734 17.5311551,37.4175683 17.4449097,37.4345317 L16.916337,37.5322775 C16.8264253,37.547887 16.7356224,37.563151 16.6439537,37.5780629 L16.0837536,37.663252 L16.0837536,37.663252 L15.5039898,37.7396568 L15.5039898,37.7396568 L14.9058793,37.8069467 C14.804733,37.8173837 14.7028729,37.8274272 14.6003244,37.8370703 L13.9769757,37.8900681 L13.9769757,37.8900681 L13.3383227,37.9331247 C13.2306728,37.939454 13.1224359,37.9453553 13.0136374,37.9508217 L12.35431,37.9783467 L12.35431,37.9783467 L11.6827207,37.995104 L11.6827207,37.995104 L11.0000866,38.0007633 L11.0000866,38.0007633 L10.3174525,37.995104 L10.3174525,37.995104 L9.64586326,37.9783467 L9.64586326,37.9783467 L8.98653577,37.9508217 L8.98653577,37.9508217 L8.34068706,37.9128597 L8.34068706,37.9128597 L7.7095341,37.8647912 C7.6056342,37.8559559 7.50239733,37.8467133 7.39984884,37.8370703 L6.79302137,37.7744618 L6.79302137,37.7744618 L6.20393211,37.7025731 L6.20393211,37.7025731 L5.63379806,37.6217348 C5.54042292,37.6075344 5.4478883,37.5929747 5.35621954,37.5780629 L4.81680013,37.48442 C4.72869623,37.4681267 4.6415089,37.451495 4.55526349,37.4345317 L4.04929695,37.3288278 C3.96692065,37.3105657 3.88553698,37.2919858 3.80517129,37.273095 L3.33539583,37.1560739 L3.33539583,37.1560739 L2.89126897,37.0319213 C1.0958653,36.50022 0,35.7914072 0,35.0130811 C0,34.893055 0.0261451983,34.774682 0.0768095757,34.6583567 C0.0544798368,34.6585103 0.0271143888,34.654357 0,34.6454571 L10.3662953,0.697476655 C10.5636906,0.0379331162 11.0064962,-0.19429551 11.3554056,0.178907878 Z" id="path-7"></path>
        <radialGradient cx="50%" cy="50%" fx="50%" fy="50%" r="50%" gradientTransform="translate(0.500000,0.500000),scale(0.285714,1.000000),rotate(90.000000),scale(1.000000,3.723312),translate(-0.500000,-0.500000)" id="radialGradient-9">
            <stop stop-color="#108BFE" offset="0%"></stop>
            <stop stop-color="#78BEFF" offset="100%"></stop>
        </radialGradient>
        <path d="M5.67776707,0.0757715313 C5.73507109,0.127434797 5.7824897,0.202881151 5.81490759,0.29411628 L11.0000866,14.593232 L10.9617253,14.5934342 C10.9870574,14.6424133 11.0000866,14.6922545 11.0000866,14.7427918 C11.0000866,15.0705081 10.4521994,15.3689556 9.55450112,15.5928298 L9.33243857,15.6451046 L9.33243857,15.6451046 L9.09755176,15.6943766 L9.09755176,15.6943766 L8.85044918,15.7405067 C8.80828125,15.7479254 8.76562967,15.7552075 8.72250714,15.76235 L8.45822183,15.8035061 C8.41326616,15.8100785 8.36786489,15.8165055 8.32203069,15.8227842 L8.04193175,15.8586533 L8.04193175,15.8586533 L7.752051,15.8908237 L7.752051,15.8908237 L7.45299694,15.9191563 C7.40242395,15.9235508 7.3514941,15.9277797 7.30022006,15.9318399 L6.98854693,15.9541548 L6.98854693,15.9541548 L6.66922171,15.9722839 C6.61539697,15.9749488 6.56127875,15.9774336 6.50687972,15.9797352 L6.17721727,15.9913247 L6.17721727,15.9913247 L5.84142396,15.9983804 L5.84142396,15.9983804 L5.50010826,16.0007633 L5.50010826,16.0007633 L5.15879257,15.9983804 L5.15879257,15.9983804 L4.82299925,15.9913247 L4.82299925,15.9913247 L4.49333681,15.9797352 L4.49333681,15.9797352 L4.17041372,15.9637512 L4.17041372,15.9637512 L3.85483848,15.9435119 C3.80288874,15.9397918 3.75127051,15.9359001 3.69999646,15.9318399 L3.39658392,15.9054784 L3.39658392,15.9054784 L3.10204045,15.8752095 L3.10204045,15.8752095 L2.81697455,15.8411724 C2.77028717,15.8351932 2.72402004,15.8290628 2.67818583,15.8227842 L2.40847719,15.7833556 C2.36442542,15.7764953 2.32083192,15.7694924 2.27770939,15.76235 L2.02472711,15.7178431 C1.98353912,15.7101538 1.94284745,15.7023307 1.90266477,15.6943766 L1.66777796,15.6451046 L1.66777796,15.6451046 L1.44571541,15.5928298 C0.548017103,15.3689556 8.66096871e-05,15.0705081 8.66096871e-05,14.7427918 C8.66096871e-05,14.6922545 0.0131591574,14.6424133 0.0384912463,14.5934342 C0.0273264209,14.5934989 0.0136437507,14.5917501 8.66096871e-05,14.5880028 L5.18321386,0.29411628 C5.2819111,0.016413737 5.50331302,-0.0813667373 5.67776707,0.0757715313 Z" id="path-10"></path>
        <linearGradient x1="50%" y1="0.213068182%" x2="50%" y2="100%" id="linearGradient-12">
            <stop stop-color="#A7E0FF" offset="0%"></stop>
            <stop stop-color="#0FC0FE" offset="100%"></stop>
        </linearGradient>
        <linearGradient x1="50%" y1="2.37926136%" x2="50%" y2="100%" id="linearGradient-13">
            <stop stop-color="#73C4FF" offset="0%"></stop>
            <stop stop-color="#137DFE" offset="100%"></stop>
        </linearGradient>
        <linearGradient x1="50%" y1="0.213068182%" x2="50%" y2="100%" id="linearGradient-14">
            <stop stop-color="#A7E0FF" offset="0%"></stop>
            <stop stop-color="#0FC0FE" offset="100%"></stop>
        </linearGradient>
        <linearGradient x1="50%" y1="2.43662587%" x2="50%" y2="100%" id="linearGradient-15">
            <stop stop-color="#07C8FF" offset="0%"></stop>
            <stop stop-color="#108BFE" offset="100%"></stop>
        </linearGradient>
    </defs>
    <g id="页面-1" stroke="none" stroke-width="1" fill="none" fill-rule="evenodd">
        <g id="画板备份-2" transform="translate(-1231.000000, -149.000000)">
            <g id="无消息无通知" transform="translate(1231.000000, 149.000000)">
                <mask id="mask-2" fill="white">
                    <use xlink:href="#path-1"></use>
                </mask>
                <g id="蒙版"></g>
                <g id="椭圆形备份-4" mask="url(#mask-2)">
                    <g transform="translate(20.000000, 90.000000)">
                        <mask id="mask-5" fill="white">
                            <use xlink:href="#path-4"></use>
                        </mask>
                        <use id="蒙版" stroke="none" fill="url(#linearGradient-3)" fill-rule="evenodd" xlink:href="#path-4"></use>
                        <ellipse id="椭圆形" stroke="none" fill="url(#radialGradient-6)" fill-rule="evenodd" mask="url(#mask-5)" cx="130.5" cy="236.5" rx="172.5" ry="104"></ellipse>
                        <g id="Fill-3" stroke="none" stroke-width="1" fill="none" fill-rule="evenodd" mask="url(#mask-5)">
                            <g transform="translate(195.999913, 115.999237)">
                                <mask id="mask-8" fill="white">
                                    <use xlink:href="#path-7"></use>
                                </mask>
                                <use id="蒙版" stroke="none" fill="#78BEFF" fill-rule="evenodd" xlink:href="#path-7"></use>
                                <path d="M23.0000866,35.4777513 L15.0000866,39.0007633 C14.9725956,39.0014629 10.9352506,0.0347073353 11.0000866,0.247631123 C11.5546366,-0.0815260018 11.8879699,-0.0815260018 12.0000866,0.247631123 C14.5546366,7.74738959 18.2213032,19.490763 23.0000866,35.4777513 Z" id="Fill-3" stroke="none" fill="#108BFE" fill-rule="evenodd" mask="url(#mask-8)"></path>
                            </g>
                        </g>
                        <ellipse id="椭圆形" stroke="none" fill="url(#radialGradient-9)" fill-rule="evenodd" mask="url(#mask-5)" cx="172.999913" cy="155.999237" rx="7" ry="2"></ellipse>
                        <ellipse id="椭圆形备份-12" stroke="none" fill="url(#radialGradient-9)" fill-rule="evenodd" mask="url(#mask-5)" cx="98.9999134" cy="142.999237" rx="7" ry="2"></ellipse>
                        <g id="Fill-3" stroke="none" stroke-width="1" fill="none" fill-rule="evenodd" mask="url(#mask-5)">
                            <g transform="translate(54.999913, 128.999237)">
                                <mask id="mask-11" fill="white">
                                    <use xlink:href="#path-10"></use>
                                </mask>
                                <use id="蒙版" stroke="none" fill="#78BEFF" fill-rule="evenodd" xlink:href="#path-10"></use>
                                <path d="M11.0000866,15.4650914 L7.00034413,17.0007633 C6.98659953,17.0010683 4.96805697,0.0155594063 5.00047289,0.108372339 C5.27773001,-0.0351064073 5.44438595,-0.0351064073 5.5004407,0.108372339 C6.77763344,3.37749782 8.61084875,8.49640417 11.0000866,15.4650914 Z" id="Fill-3" stroke="none" fill="#108BFE" fill-rule="evenodd" mask="url(#mask-11)"></path>
                            </g>
                        </g>
                    </g>
                </g>
                <g id="编组-5" mask="url(#mask-2)">
                    <g transform="translate(61.000000, 29.000000)">
                        <rect id="矩形备份-8" fill="url(#linearGradient-12)" x="23.5897436" y="0" width="176.410256" height="131.282051" rx="65.6410256"></rect>
                        <rect id="矩形备份-8" fill="url(#linearGradient-13)" x="17.4358974" y="5.12820513" width="176.410256" height="131.282051" rx="65.6410256"></rect>
                        <path d="M116.645482,24.6153846 C153.617777,24.6153846 183.589744,54.5873515 183.589744,91.5596464 C183.589744,128.531941 153.617777,158.503908 116.645482,158.503908 L112.267487,158.503385 L122.948718,159.351304 L67.3964497,173.333333 L60.6114398,173.333333 L67.9956908,158.227183 C33.8955814,155.132602 7.17948718,126.466063 7.17948718,91.5596464 C7.17948718,54.5873515 37.1514541,24.6153846 74.123749,24.6153846 L116.645482,24.6153846 Z" id="形状结合" fill="url(#linearGradient-14)"></path>
                        <path d="M111.033227,30.7692308 C147.139963,30.7692308 176.410256,60.0395238 176.410256,96.1462601 C176.410256,132.252996 147.139963,161.523289 111.033227,161.523289 L110.084,161.523231 L60.2169625,173.333333 L60.2158054,161.32255 C26.5217024,158.69113 4.20907097e-15,130.515933 0,96.1462601 C-4.4217999e-15,60.0395238 29.270293,30.7692308 65.3770293,30.7692308 L111.033227,30.7692308 Z" id="形状结合" fill="url(#linearGradient-15)"></path>
                        <path d="M51.1676021,88.2051282 C56.7688525,88.2051282 61.3095631,92.7970795 61.3095631,98.4615385 C61.3095631,104.125997 56.7688525,108.717949 51.1676021,108.717949 C45.5663517,108.717949 41.025641,104.125997 41.025641,98.4615385 C41.025641,92.7970795 45.5663517,88.2051282 51.1676021,88.2051282 Z M89.6225377,88.2051282 C95.2237881,88.2051282 99.7644987,92.7970795 99.7644987,98.4615385 C99.7644987,104.125997 95.2237881,108.717949 89.6225377,108.717949 C84.0212873,108.717949 79.4805766,104.125997 79.4805766,98.4615385 C79.4805766,92.7970795 84.0212873,88.2051282 89.6225377,88.2051282 Z M129.345218,88.2051282 C134.946469,88.2051282 139.487179,92.7970795 139.487179,98.4615385 C139.487179,104.125997 134.946469,108.717949 129.345218,108.717949 C123.743968,108.717949 119.203257,104.125997 119.203257,98.4615385 C119.203257,92.7970795 123.743968,88.2051282 129.345218,88.2051282 Z" id="形状结合备份" fill-opacity="0.3" fill="#FFFFFF"></path>
                        <path d="M49.11632,88.2051282 C54.7175704,88.2051282 59.2582811,92.7970795 59.2582811,98.4615385 C59.2582811,104.125997 54.7175704,108.717949 49.11632,108.717949 C43.5150696,108.717949 38.974359,104.125997 38.974359,98.4615385 C38.974359,92.7970795 43.5150696,88.2051282 49.11632,88.2051282 Z M87.5712556,88.2051282 C93.1725061,88.2051282 97.7132167,92.7970795 97.7132167,98.4615385 C97.7132167,104.125997 93.1725061,108.717949 87.5712556,108.717949 C81.9700052,108.717949 77.4292946,104.125997 77.4292946,98.4615385 C77.4292946,92.7970795 81.9700052,88.2051282 87.5712556,88.2051282 Z M127.293936,88.2051282 C132.895187,88.2051282 137.435897,92.7970795 137.435897,98.4615385 C137.435897,104.125997 132.895187,108.717949 127.293936,108.717949 C121.692686,108.717949 117.151975,104.125997 117.151975,98.4615385 C117.151975,92.7970795 121.692686,88.2051282 127.293936,88.2051282 Z" id="形状结合" fill="#FFFFFF"></path>
                    </g>
                </g>
            </g>
        </g>
    </g>
</svg>